<svg width="384" height="353" viewBox="0 0 384 353" fill="none" xmlns="http://www.w3.org/2000/svg">
<mask id="mask0_438_2092" style="mask-type:alpha" maskUnits="userSpaceOnUse" x="0" y="0" width="381" height="353">
<rect x="0.5" y="0.5" width="380" height="352" rx="13.5" fill="#121E31" stroke="white"/>
</mask>
<g mask="url(#mask0_438_2092)">
<path d="M238.439 237.526C236.286 235.38 233.753 233.774 230.988 232.788V197.652C230.988 186.629 222.017 177.658 210.994 177.658C199.971 177.658 191 186.629 191 197.652V270.962C191 276.421 193.799 283.192 197.665 287.051L228.228 317.615H224.323V350.938H284.304V330.944V317.615V297.621C284.304 288.397 279.279 276.641 272.621 270.263L238.439 237.526ZM204.329 197.652C204.329 193.973 207.322 190.987 210.994 190.987C214.666 190.987 217.658 193.973 217.658 197.652V232.781C214.899 233.767 212.373 235.367 210.247 237.493C206.622 241.072 204.542 245.764 204.329 250.795V197.652ZM244.317 317.615V314.855L207.088 277.627C205.749 276.287 204.329 272.862 204.329 270.962V252.495C204.542 257.507 206.608 262.205 210.161 265.757L237.552 293.709L247.076 284.385L219.631 256.374C218.338 255.087 217.632 253.401 217.638 251.622C217.638 249.869 218.338 248.223 219.638 246.95C222.19 244.384 226.342 244.284 229.108 247.057L263.397 279.893C267.363 283.685 270.975 292.136 270.975 297.621V317.615H244.317Z" fill="#202D42"/>
<path d="M370.944 177.658C359.92 177.658 350.95 186.629 350.95 197.652V232.781C348.197 233.754 345.692 235.334 343.606 237.42L309.31 270.256C302.652 276.641 297.633 288.397 297.633 297.621V317.615V330.944V350.938H357.615V317.615H353.709L384.273 287.051C388.138 283.192 390.937 276.421 390.937 270.962V197.652C390.937 186.629 381.967 177.658 370.944 177.658ZM377.608 270.962C377.608 272.862 376.189 276.287 374.849 277.627L337.621 314.855V317.615H310.962V297.621C310.962 292.136 314.575 283.679 318.533 279.893L352.936 246.95C355.475 244.397 359.701 244.351 362.333 246.99C363.593 248.236 364.292 249.882 364.292 251.629C364.299 253.408 363.593 255.094 362.246 256.434L334.855 284.392L344.379 293.715L371.717 265.811C375.322 262.205 377.395 257.507 377.602 252.495V270.962H377.608ZM377.608 250.795C377.395 245.764 375.316 241.072 371.723 237.533C369.577 235.387 367.038 233.781 364.279 232.794V197.652C364.279 193.973 367.272 190.987 370.944 190.987C374.616 190.987 377.608 193.973 377.608 197.652V250.795Z" fill="#202D42"/>
<path d="M344.286 185.009C344.286 175.946 340.747 167.402 334.335 160.99C327.957 154.559 319.433 151.027 310.316 151.027C303.285 151.027 296.587 153.126 290.949 157.038C285.297 153.153 278.52 151 271.635 151C262.565 151 254.027 154.539 247.623 160.944C241.211 167.302 237.672 175.812 237.652 184.896C237.639 194.027 241.171 202.597 247.603 209.029L290.962 252.388L334.315 209.029C340.653 202.684 344.286 193.927 344.286 185.009Z" fill="#202D42"/>
</g>
</svg>
