<svg width="1626" height="422" viewBox="0 0 1626 422" fill="none" xmlns="http://www.w3.org/2000/svg">
<mask id="mask0_35_147" style="mask-type:alpha" maskUnits="userSpaceOnUse" x="0" y="0" width="1626" height="422">
<rect width="1626" height="422" rx="14" fill="#21627D"/>
</mask>
<g mask="url(#mask0_35_147)">
<ellipse cx="396.965" cy="618.448" rx="165.109" ry="265.973" fill="#1C7768"/>
<ellipse cx="-0.000152588" cy="-43.6552" rx="143.53" ry="231.211" fill="#248877"/>
<ellipse cx="1479.96" cy="-42.8467" rx="136.002" ry="219.084" fill="#248877"/>
<ellipse cx="31.1148" cy="50.1226" rx="31.1148" ry="50.1226" transform="matrix(-1 0 0 1 191.708 66.2911)" fill="#248877"/>
<ellipse cx="495.775" cy="405.218" rx="3.14537" ry="1.95256" transform="rotate(-90 495.775 405.218)" fill="white"/>
<ellipse cx="495.775" cy="390.121" rx="3.14537" ry="1.95256" transform="rotate(-90 495.775 390.121)" fill="white"/>
<ellipse cx="495.775" cy="375.023" rx="3.14537" ry="1.95256" transform="rotate(-90 495.775 375.023)" fill="white"/>
<ellipse cx="505.147" cy="405.218" rx="3.14537" ry="1.95256" transform="rotate(-90 505.147 405.218)" fill="white"/>
<ellipse cx="505.147" cy="390.121" rx="3.14537" ry="1.95256" transform="rotate(-90 505.147 390.121)" fill="white"/>
<ellipse cx="505.147" cy="375.023" rx="3.14537" ry="1.95256" transform="rotate(-90 505.147 375.023)" fill="white"/>
<ellipse cx="514.519" cy="405.218" rx="3.14537" ry="1.95256" transform="rotate(-90 514.519 405.218)" fill="white"/>
<ellipse cx="514.519" cy="390.121" rx="3.14537" ry="1.95256" transform="rotate(-90 514.519 390.121)" fill="white"/>
<ellipse cx="514.519" cy="375.023" rx="3.14537" ry="1.95256" transform="rotate(-90 514.519 375.023)" fill="white"/>
<ellipse cx="523.892" cy="405.218" rx="3.14537" ry="1.95256" transform="rotate(-90 523.892 405.218)" fill="white"/>
<ellipse cx="523.892" cy="390.121" rx="3.14537" ry="1.95256" transform="rotate(-90 523.892 390.121)" fill="white"/>
<ellipse cx="523.892" cy="375.023" rx="3.14537" ry="1.95256" transform="rotate(-90 523.892 375.023)" fill="white"/>
<ellipse cx="533.264" cy="405.218" rx="3.14537" ry="1.95256" transform="rotate(-90 533.264 405.218)" fill="white"/>
<ellipse cx="533.264" cy="390.121" rx="3.14537" ry="1.95256" transform="rotate(-90 533.264 390.121)" fill="white"/>
<ellipse cx="533.264" cy="375.023" rx="3.14537" ry="1.95256" transform="rotate(-90 533.264 375.023)" fill="white"/>
<ellipse cx="1585.8" cy="390.033" rx="3.68831" ry="5.94147" transform="rotate(180 1585.8 390.033)" fill="white" fill-opacity="0.17"/>
<ellipse cx="1568.1" cy="390.033" rx="3.68831" ry="5.94147" transform="rotate(180 1568.1 390.033)" fill="white" fill-opacity="0.17"/>
<ellipse cx="1550.4" cy="390.033" rx="3.68831" ry="5.94147" transform="rotate(180 1550.4 390.033)" fill="white" fill-opacity="0.17"/>
<ellipse cx="1585.8" cy="361.514" rx="3.68831" ry="5.94147" transform="rotate(180 1585.8 361.514)" fill="white" fill-opacity="0.17"/>
<ellipse cx="1568.1" cy="361.514" rx="3.68831" ry="5.94147" transform="rotate(180 1568.1 361.514)" fill="white" fill-opacity="0.17"/>
<ellipse cx="1550.4" cy="361.514" rx="3.68831" ry="5.94147" transform="rotate(180 1550.4 361.514)" fill="white" fill-opacity="0.17"/>
<ellipse cx="1585.8" cy="332.995" rx="3.68831" ry="5.94147" transform="rotate(180 1585.8 332.995)" fill="white" fill-opacity="0.17"/>
<ellipse cx="1568.1" cy="332.995" rx="3.68831" ry="5.94147" transform="rotate(180 1568.1 332.995)" fill="white" fill-opacity="0.17"/>
<ellipse cx="1550.4" cy="332.995" rx="3.68831" ry="5.94147" transform="rotate(180 1550.4 332.995)" fill="white" fill-opacity="0.17"/>
<ellipse cx="1585.8" cy="304.476" rx="3.68831" ry="5.94147" transform="rotate(180 1585.8 304.476)" fill="white" fill-opacity="0.17"/>
<ellipse cx="1568.1" cy="304.476" rx="3.68831" ry="5.94147" transform="rotate(180 1568.1 304.476)" fill="white" fill-opacity="0.17"/>
<ellipse cx="1550.4" cy="304.476" rx="3.68831" ry="5.94147" transform="rotate(180 1550.4 304.476)" fill="white" fill-opacity="0.17"/>
<ellipse cx="1585.8" cy="275.957" rx="3.68831" ry="5.94147" transform="rotate(180 1585.8 275.957)" fill="white" fill-opacity="0.17"/>
<ellipse cx="1568.1" cy="275.957" rx="3.68831" ry="5.94147" transform="rotate(180 1568.1 275.957)" fill="white" fill-opacity="0.17"/>
<ellipse cx="1550.4" cy="275.957" rx="3.68831" ry="5.94147" transform="rotate(180 1550.4 275.957)" fill="white" fill-opacity="0.17"/>
</g>
</svg>
